# xmcd
#
# Track frame offsets: 
#        9075
#        34220
#        54145
#        74940
#        88725
#        108490
#        135470
#        154567
#        172982
#        196635
#
# Disc length: 3160 seconds
#
# Revision: 6
# Processed by: cddbd v1.5.2PL0 Copyright (c) Steve Scherf et al.
# Submitted via: ExactAudioCopyFreeDBPlugin 1.0
#
DISCID=810bdf0a
DTITLE=David Gray - White ladder
DYEAR=1998
DGENRE=Rock
TTITLE0=Please forgive me
TTITLE1=Babylon
TTITLE2=My oh my
TTITLE3=Were not right
TTITLE4=Nightblindness
TTITLE5=Silver lining
TTITLE6=White ladder
TTITLE7=This years love
TTITLE8=Sail away
TTITLE9=Say hello wave goodbye
EXTD=
EXTT0=
EXTT1=
EXTT2=
EXTT3=
EXTT4=
EXTT5=
EXTT6=
EXTT7=
EXTT8=
EXTT9=
PLAYORDER=
